#!OML:ASF E:/inclinewalkrobotboard/Project1/Captureday1/Session1/subject1.ASF
:FULLY-SPECIFIED
:DEGREES
213
root 0 0 0 45.011842829229636 -47.14744621120259 -18.509696477421922
lowerback -6.496682133253871 3.6045663841930606 -0.4821430633269901
upperback -13.440587284772642 4.312058379025851 -0.08147431928514015
thorax -11.03808978956863 2.112367343953389 0.6782339811813507
lowerneck -11.43799093372207 6.7622076837975404 4.439057006791378
upperneck 18.18419437931008 7.231706083464511 7.279869480139446
head 7.638392536022691 4.227373110033689 2.161420076323232
rclavicle 9.120988170456366E-16 -1.825511908017743E-15
rhumerus 7.934217118264073 -22.47637920568256 -48.49965607679077
rradius 27.918981654803133
rwrist 21.292380616383756
rhand 0.8296483406522377 7.369290579277966
rfingers 7.125020000000029
rthumb 26.447748313953 -19.683834552007585
lclavicle 1.4163383057548694E-15 -9.252823610189327E-16
lhumerus -10.5321343335131 3.942335415638254 51.27480209342047
lradius 35.565582969425044
lwrist -7.877318997881769
lhand -1.7941704794682334 23.34369247391733
lfingers 7.125019999999976
lthumb 23.485602494576717 50.52404068511974
rfemur 58.99349213554976 -81.99553658006371 -56.17932121637099
rtibia 40.2128663837942
rfoot -18.42675884284111 -17.98279234124868
rtoes 21.637809350091693
lfemur -44.7883460956231 8.23772823302545 -27.13737103207235
ltibia 44.06746325357318
lfoot -22.778957930514903 14.931950635939742
ltoes 10.89335438094405
214
root 0 0 0 45.0369107173414 -47.157024373841665 -18.51823167774296
lowerback -6.508139050126351 3.6049637903541556 -0.4819151302554683
upperback -13.448128046151712 4.313216814669964 -0.08019759705422658
thorax -11.040022165557854 2.1130053674861617 0.6800253824129048
lowerneck -11.43362995611942 6.7636968658771295 4.439884706742334
upperneck 18.186879842258104 7.233500240811656 7.2824767321677335
head 7.638791866195856 4.228343029633426 2.1621166644276757
rclavicle 9.103260308535115E-16 -1.8255784191298906E-15
rhumerus 7.983966545065217 -22.477338892844585 -48.4827002502968
rradius 27.90914949228759
rwrist 21.318124612565427
rhand 0.8567870141029594 7.344796801990968
rfingers 7.125020000000029
rthumb 26.473685170329684 -19.70419513913927
lclavicle 1.4086039411805668E-15 -9.294904390664109E-16
lhumerus -10.500175634924446 3.9605631724069252 51.21533700833706
lradius 35.56074127796668
lwrist -7.907407432992847
lhand -1.7763805819907486 23.347644846115045
lfingers 7.125019999999976
lthumb 23.50505357422899 50.52578242080439
rfemur 59.13365373980364 -82.15617341655869 -56.337829735262076
rtibia 40.212908856193266
rfoot -18.43753161732071 -18.00235580993082
rtoes 21.658941533081194
lfemur -44.84771365332294 8.259871645690398 -27.144037169208907
ltibia 44.08323155881747
lfoot -22.806617501609324 14.96259550197054
ltoes 10.924155423275689
215
root 0 0 0 45.02313841308195 -47.1437791464614 -18.513246796466483
lowerback -6.5037975072654595 3.6045453049883878 -0.4814858794413358
upperback -13.44317107305 4.3126625407711545 -0.0800910415108449
thorax -11.037062256183349 2.112631743393112 0.6795628554337505
lowerneck -11.435953648620306 6.760563659994576 4.438325383145262
upperneck 18.18920697478065 7.2297528279260295 7.279544342142717
head 7.63994580935863 4.226334791800434 2.1612335526839592
rclavicle 9.12344741296246E-16 -1.8264769162020187E-15
rhumerus 7.959756153290417 -22.478332018950407 -48.47970210264886
rradius 27.91426104577592
rwrist 21.305699051479763
rhand 0.8488700154514763 7.352708454650943
rfingers 7.125020000000029
rthumb 26.466590029007293 -19.697401236864902
lclavicle 1.4174782713938626E-15 -9.287519950320567E-16
lhumerus -10.507393690851432 3.9459522687596222 51.24760238212475
lradius 35.573155116024864
lwrist -7.885734604476063
lhand -1.7738012881723577 23.342913247831284
lfingers 7.125019999999976
lthumb 23.506608696804342 50.52010355616627
rfemur 59.063158869551714 -82.07269617913285 -56.255713736679766
rtibia 40.212666851621066
rfoot -18.429835697940106 -17.991940644624254
rtoes 21.645693605945226
lfemur -44.81872181336261 8.249019948536338 -27.139943534863058
ltibia 44.075031135978456
lfoot -22.79355839824235 14.947026519260927
ltoes 10.909190512886365
216
root 0 0 0 45.013205220968764 -47.13142425405317 -18.50873368663991
lowerback -6.501755740417498 3.6035184581839226 -0.4818044289964634
upperback -13.440703582611654 4.311397720093737 -0.07934068067039268
thorax -11.035452852838997 2.1120681261030514 0.6803166179398805
lowerneck -11.436262350991642 6.757897493873317 4.43656694453394
upperneck 18.191046322330234 7.226557504287012 7.277855824892189
head 7.640692279289022 4.224612614264006 2.160693509543225
rclavicle 9.144023894024347E-16 -1.827930712280395E-15
rhumerus 7.935688731776308 -22.47919250746431 -48.47436498815832
rradius 27.92008174442635
rwrist 21.290842163653824
rhand 0.8422741224301156 7.360105898746244
rfingers 7.125020000000029
rthumb 26.460306434695347 -19.6912229188471
lclavicle 1.422967684661955E-15 -9.27502404307133E-16
lhumerus -10.513798270643129 3.9348400221471285 51.271366192061194
lradius 35.58218143028852
lwrist -7.8690234197624775
lhand -1.772602867079872 23.33969359707653
lfingers 7.125019999999976
lthumb 23.506694698074178 50.5162199646187
rfemur 59.01473611506454 -82.01941524169663 -56.203362666432064
rtibia 40.21287118852987
rfoot -18.42786050781051 -17.985523781984462
rtoes 21.640419110962977
lfemur -44.799049859509395 8.242133296418967 -27.136040247071286
ltibia 44.06928574973297
lfoot -22.7877938640191 14.937472779167436
ltoes 10.901121465570045
217
root 0 0 0 45.0045955935837 -47.12564858855745 -18.5052973501631
lowerback -6.498564012634771 3.6029146891176373 -0.48219933704983614
upperback -13.438815156410085 4.310475269596662 -0.07929064650477224
thorax -11.035064467398279 2.1116668791483058 0.6804612202039453
lowerneck -11.436883369209315 6.756987852717798 4.435795301419591
upperneck 18.190298695434105 7.22549907947027 7.27715043585407
head 7.640500893395285 4.224032450789724 2.160498258003786
rclavicle 9.15061825443807E-16 -1.8286175815141698E-15
rhumerus 7.915814622294681 -22.478333704929536 -48.477369789292794
rradius 27.923540826339117
rwrist 21.27948343353448
rhand 0.8344481387772973 7.3677103190960205
rfingers 7.125020000000029
rthumb 26.452868647061564 -19.684866323502412
lclavicle 1.4278438627899774E-15 -9.255811699927434E-16
lhumerus -10.52313054805473 3.9231418029449974 51.29833813981584
lradius 35.58996079204273
lwrist -7.850831502212078
lhand -1.7737906409954345 23.336746684490294
lfingers 7.125019999999976
lthumb 23.504316927031738 50.51295526419582
rfemur 58.94377236686397 -81.9416044265065 -56.12740151601168
rtibia 40.213448177967955
rfoot -18.425493313231595 -17.976313188227614
rtoes 21.634219965023362
lfemur -44.77603893214359 8.234098439824914 -27.13227729687613
ltibia 44.06308553726375
lfoot -22.779805926316705 14.926274757409047
ltoes 10.891027699718453
218
root 0 0 0 45.00048471075119 -47.12501595072045 -18.50380420453363
lowerback -6.49637602279633 3.6026394548013414 -0.48256063064955956
upperback -13.438306944400106 4.30994843502782 -0.07943527352641189
thorax -11.035618186832938 2.111453031262312 0.6804750691005979
lowerneck -11.43709171734858 6.757262488217029 4.435706214318331
upperneck 18.188525000939876 7.225877767254474 7.277362147352646
head 7.639855359157751 4.22421705881834 2.1605921276728033
rclavicle 9.15792329504556E-16 -1.8292436639795475E-15
rhumerus 7.900120632811433 -22.477959268885385 -48.47808575392805
rradius 27.926219369324183
rwrist 21.270597605029973
rhand 0.82913234245399 7.373087778507996
rfingers 7.125020000000029
rthumb 26.44785075390471 -19.680369623906344
lclavicle 1.432535591107739E-15 -9.23929012784472E-16
lhumerus -10.530377108321927 3.912685451074602 51.32141814657039
lradius 35.597484294292
lwrist -7.834847237187385
lhand -1.7737710364216976 23.33403165888369
lfingers 7.125019999999976
lthumb 23.5032654000031 50.509804910821074
rfemur 58.89462459219403 -81.88787779964 -56.075103593849924
rtibia 40.21382319586252
rfoot -18.42394803740987 -17.969933283855468
rtoes 21.629939487262476
lfemur -44.760788574389125 8.228808224030045 -27.129632359902725
ltibia 44.05893210300227
lfoot -22.774773227064088 14.91888279905049
ltoes 10.884541437410546
219
root 0 0 0 45.030516358848836 -47.14414905097102 -18.514843547429546
lowerback -6.507941448837107 3.603693285445022 -0.4823228873134272
upperback -13.447318963078219 4.3117798482723355 -0.07889247619336937
thorax -11.03909021588695 2.112400469220623 0.6815803246664764
lowerneck -11.43272341342353 6.761037463930608 4.437900338434679
upperneck 18.188720931123015 7.230419379293455 7.28139279527246
head 7.639315283521716 4.226659361961982 2.1617568665110145
rclavicle 9.126805897745372E-16 -1.828124468323475E-15
rhumerus 7.962023183041985 -22.478248957274495 -48.46838023252574
rradius 27.913772413426233
rwrist 21.30397124218879
rhand 0.8568664289667929 7.346945715280621
rfingers 7.125020000000029
rthumb 26.47417178392693 -19.702212900951988
lclavicle 1.4207275328339816E-15 -9.285026323681298E-16
lhumerus -10.498121857864893 3.938537964183594 51.24934477095672
lradius 35.584710060287165
lwrist -7.875959997267593
lhand -1.7606204581224478 23.34045976867191
lfingers 7.125019999999976
lthumb 23.518779224055407 50.515098741608924
rfemur 59.061797128587656 -82.07807603674908 -56.262329599549915
rtibia 40.21359745759312
rfoot -18.435704814280367 -17.99301221562751
rtoes 21.653404138384307
lfemur -44.828077816580674 8.253541867393665 -27.138424214440576
ltibia 44.07711623710167
lfoot -22.803754027261284 14.953291181302554
ltoes 10.917964930587786
